<svg width="18" height="21" viewBox="0 0 18 21" fill="none" xmlns="http://www.w3.org/2000/svg">
<g clip-path="url(#clip0)">
<path d="M17.6534 14.8596C16.8772 14.0081 15.4247 12.7271 15.4247 8.53125C15.4247 5.34434 13.2358 2.79316 10.2843 2.16727V1.3125C10.2843 0.587754 9.70891 0 8.99936 0C8.2898 0 7.71445 0.587754 7.71445 1.3125V2.16727C4.76293 2.79316 2.574 5.34434 2.574 8.53125C2.574 12.7271 1.12154 14.0081 0.345294 14.8596C0.104222 15.1241 -0.00265254 15.4403 -0.000643608 15.75C0.00377604 16.4227 0.520874 17.0625 1.28909 17.0625H16.7096C17.4778 17.0625 17.9953 16.4227 17.9994 15.75C18.0014 15.4403 17.8945 15.1237 17.6534 14.8596ZM2.71262 15.0938C3.5652 13.9465 4.49735 12.0451 4.50177 8.55504C4.50177 8.54684 4.49936 8.53945 4.49936 8.53125C4.49936 5.99402 6.51391 3.9375 8.99936 3.9375C11.4848 3.9375 13.4994 5.99402 13.4994 8.53125C13.4994 8.53945 13.4969 8.54684 13.4969 8.55504C13.5014 12.0455 14.4335 13.947 15.2861 15.0938H2.71262ZM8.99936 21C10.4185 21 11.5696 19.8249 11.5696 18.375H6.42913C6.42913 19.8249 7.58025 21 8.99936 21Z" fill="#212529"/>
</g>
<defs>
<clipPath id="clip0">
<rect width="18" height="21" fill="white"/>
</clipPath>
</defs>
</svg>
