<svg width="19" height="19" viewBox="0 0 19 19" fill="none" xmlns="http://www.w3.org/2000/svg">
<g clip-path="url(#clip0_107:233)">
<path d="M17.9574 7.43692L16.469 7.24771C16.3463 6.87008 16.1951 6.50592 16.0186 6.15996L16.9377 4.97642C17.3098 4.49746 17.2663 3.82138 16.8411 3.40971L15.5943 2.16283C15.1786 1.73375 14.5025 1.691 14.0228 2.06229L12.8408 2.98142C12.4949 2.80488 12.1307 2.65367 11.7523 2.53096L11.5631 1.045C11.4918 0.448875 10.986 0 10.3867 0H8.61333C8.01404 0 7.50817 0.448875 7.43692 1.04263L7.24771 2.53096C6.86929 2.65367 6.50513 2.80408 6.15917 2.98142L4.97642 2.06229C4.49825 1.691 3.82217 1.73375 3.40971 2.15887L2.16283 3.40496C1.73375 3.82138 1.69021 4.49746 2.06229 4.97721L2.98142 6.15996C2.80408 6.50592 2.65367 6.87008 2.53096 7.24771L1.045 7.43692C0.448875 7.50817 0 8.01404 0 8.61333V10.3867C0 10.986 0.448875 11.4918 1.04263 11.5631L2.53096 11.7523C2.65367 12.1299 2.80488 12.4941 2.98142 12.84L2.06229 14.0236C1.69021 14.5025 1.73375 15.1786 2.15887 15.5903L3.40575 16.8372C3.82217 17.2655 4.49746 17.3082 4.97721 16.9369L6.15996 16.0178C6.50592 16.1951 6.87008 16.3463 7.24771 16.4683L7.43692 17.9534C7.50817 18.5511 8.01404 19 8.61333 19H10.3867C10.986 19 11.4918 18.5511 11.5631 17.9574L11.7523 16.469C12.1299 16.3463 12.4941 16.1951 12.84 16.0186L14.0236 16.9377C14.5025 17.3098 15.1786 17.2663 15.5903 16.8411L16.8372 15.5943C17.2663 15.1778 17.3098 14.5025 16.9377 14.0228L16.0186 12.84C16.1959 12.4941 16.3471 12.1299 16.469 11.7523L17.9542 11.5631C18.5503 11.4918 18.9992 10.986 18.9992 10.3867V8.61333C19 8.01404 18.5511 7.50817 17.9574 7.43692ZM9.5 13.4583C7.31738 13.4583 5.54167 11.6826 5.54167 9.5C5.54167 7.31738 7.31738 5.54167 9.5 5.54167C11.6826 5.54167 13.4583 7.31738 13.4583 9.5C13.4583 11.6826 11.6826 13.4583 9.5 13.4583Z" fill="#DBDDDF"/>
</g>
<defs>
<clipPath id="clip0_107:233">
<rect width="19" height="19" fill="white"/>
</clipPath>
</defs>
</svg>
